:FULLY-SPECIFIED
:FORCE-ALL-JOINTS-BE-3DOF
:DEGREES
65
root 9.08685 16.265 -27.3008 5.18861 -11.9208 0.828279
lfemur -27.1869 8.00541 -24.2178
ltibia 33.4279 0 0
lfoot -10.4942 7.42 0
ltoes -2.96761 0 0
rfemur -3.48833 -0.444429 15.013
rtibia 55.8578 0 0
rfoot 8.01848 -10.1758 0
rtoes -3.42388 0 0
lowerback -5.22154 0.442186 -2.61238
upperback -2.07133 0.692035 2.49705
thorax 0.734227 0.358974 4.07773
lowerneck -22.6491 -4.11282 -11.7655
upperneck 17.7286 -4.72104 12.7906
head 9.97629 -1.53583 5.81146
lclavicle 2.2209e-14 -1.56678e-17 0
lhumerus -38.9971 -5.25073 88.3124
lradius 20.9393 0 0
lwrist -3.80708 0 0
lhand 1.98689 -17.4406 0
lfingers 7.12502 0 0
lthumb 27.4909 10.5594 0
rclavicle 2.2209e-14 -1.56678e-17 0
rhumerus -42.9077 13.2593 -90.9253
rradius 37.2967 0 0
rwrist -19.0849 0 0
rhand -29.3539 -25.3027 0
rfingers 7.12502 0 0
rthumb -2.69353 -55.2654 0
66
root 9.10762 16.2727 -27.174 5.1101 -11.8002 0.981811
lfemur -26.6192 7.89801 -24.5132
ltibia 33.3691 0 0
lfoot -10.6786 7.38987 0
ltoes -2.7629 0 0
rfemur -4.38038 -0.463319 14.9038
rtibia 56.4269 0 0
rfoot 7.572 -10.3376 0
rtoes -3.45207 0 0
lowerback -5.21453 0.381921 -2.73539
upperback -2.04285 0.621945 2.48978
thorax 0.765846 0.321292 4.13347
lowerneck -22.64 -4.12523 -11.8043
upperneck 17.7914 -4.71969 12.7372
head 9.99581 -1.54426 5.80047
lclavicle 2.14905e-14 5.5409e-17 0
lhumerus -38.5125 -5.52084 88.246
lradius 21.1585 0 0
lwrist -3.6239 0 0
lhand 1.77001 -17.5078 0
lfingers 7.12502 0 0
lthumb 27.2825 10.5135 0
rclavicle 2.14905e-14 5.5409e-17 0
rhumerus -42.8971 13.171 -90.8114
rradius 37.0672 0 0
rwrist -19.0268 0 0
rhand -29.3383 -25.1483 0
rfingers 7.12502 0 0
rthumb -2.67847 -55.1112 0
67
root 9.12749 16.2798 -27.0498 5.02881 -11.6593 1.12759
lfemur -26.0403 7.7694 -24.7962
ltibia 33.2846 0 0
lfoot -10.8872 7.37276 0
ltoes -2.56026 0 0
rfemur -5.30222 -0.466265 14.8353
rtibia 56.9062 0 0
rfoot 7.01877 -10.489 0
rtoes -3.57132 0 0
lowerback -5.21499 0.319166 -2.85184
upperback -2.00756 0.547743 2.48515
thorax 0.809381 0.281298 4.18825
lowerneck -22.6245 -4.14001 -11.8477
upperneck 17.8564 -4.72097 12.684
head 10.0155 -1.55448 5.78995
lclavicle 2.07281e-14 1.74182e-16 0
lhumerus -37.9806 -5.82683 88.1755
lradius 21.4144 0 0
lwrist -3.40077 0 0
lhand 1.48733 -17.61 0
lfingers 7.12502 0 0
lthumb 27.0108 10.4394 0
rclavicle 2.07281e-14 1.74182e-16 0
rhumerus -42.8867 13.098 -90.6926
rradius 36.8846 0 0
rwrist -18.9966 0 0
rhand -29.3231 -24.9923 0
rfingers 7.12502 0 0
rthumb -2.66377 -54.9555 0
68
root 9.14645 16.2863 -26.928 4.94516 -11.4991 1.266
lfemur -25.4506 7.6211 -25.067
ltibia 33.175 0 0
lfoot -11.118 7.36748 0
ltoes -2.36017 0 0
rfemur -6.25107 -0.453912 14.8044
rtibia 57.2997 0 0
rfoot 6.36636 -10.6303 0
rtoes -3.77564 0 0
lowerback -5.22253 0.254076 -2.96205
upperback -1.96599 0.469682 2.48297
thorax 0.864025 0.239139 4.24205
lowerneck -22.6028 -4.15702 -11.8954
upperneck 17.9234 -4.72475 12.631
head 10.0353 -1.56641 5.77989
lclavicle 1.99239e-14 3.36968e-16 0
lhumerus -37.4057 -6.16627 88.1018
lradius 21.7043 0 0
lwrist -3.14047 0 0
lhand 1.14361 -17.745 0
lfingers 7.12502 0 0
lthumb 26.6805 10.339 0
rclavicle 1.99239e-14 3.36968e-16 0
rhumerus -42.8767 13.0392 -90.5691
rradius 36.7458 0 0
rwrist -18.9923 0 0
rhand -29.3083 -24.8352 0
rfingers 7.12502 0 0
rthumb -2.64948 -54.7985 0
